<svg xmlns="http://www.w3.org/2000/svg" viewBox="0 0 2000 2000">
    <path d="M1141.536,1006.471l215.372,350.439l-350.436-215.373l-520.446,372.436l372.437-520.443L643.089,643.088l350.438,215.373
    l520.446-372.434L1141.536,1006.471z M681.712,767.941c-4.543-3.141-10.771-2.008-13.914,2.531
    C620.993,838.09,596.253,917.459,596.253,1000c0,69.377,17.894,137.809,51.746,197.896c1.837,3.26,5.228,5.094,8.722,5.094
    c1.663,0,3.349-0.416,4.899-1.289c4.813-2.711,6.516-8.811,3.805-13.621c-32.169-57.098-49.172-122.135-49.172-188.08
    c0-78.455,23.511-153.887,67.99-218.145C687.386,777.314,686.253,771.086,681.712,767.941z M1212.324,1319.707
    c-62.956,41.896-136.376,64.041-212.324,64.041c-69.328,0-137.261-18.684-196.455-54.029c-4.741-2.83-10.881-1.281-13.712,3.459
    c-2.831,4.742-1.283,10.881,3.459,13.713c62.292,37.195,133.771,56.857,206.708,56.857c79.903,0,157.155-23.303,223.405-67.391
    c4.598-3.059,5.845-9.268,2.785-13.865C1223.129,1317.895,1216.921,1316.648,1212.324,1319.707z M1335.778,794.004
    c-4.775,2.773-6.4,8.893-3.63,13.67c33.755,58.168,51.599,124.674,51.599,192.326c0,76.42-22.401,150.223-64.781,213.43
    c-3.075,4.588-1.85,10.801,2.737,13.875c1.709,1.146,3.646,1.695,5.561,1.695c3.222,0,6.386-1.555,8.314-4.432
    c44.596-66.514,68.169-144.168,68.169-224.568c0-71.174-18.777-141.15-54.3-202.365
    C1346.677,792.859,1340.56,791.234,1335.778,794.004z M779.861,683.498c1.926,0,3.873-0.555,5.589-1.715
    c63.458-42.871,137.648-65.531,214.55-65.531c65.354,0,129.877,16.715,186.597,48.34c4.823,2.688,10.913,0.959,13.604-3.865
    c2.689-4.824,0.959-10.914-3.864-13.604c-59.69-33.281-127.582-50.871-196.337-50.871c-80.906,0-158.968,23.846-225.745,68.959
    c-4.577,3.092-5.78,9.309-2.688,13.885C773.499,681.957,776.651,683.498,779.861,683.498z" fill="#6259E7"></path>
</svg>
